<?xml version="1.0" encoding="UTF-8" standalone="no"?>
<!DOCTYPE svg PUBLIC "-//W3C//DTD SVG 1.1//EN" "http://www.w3.org/Graphics/SVG/1.1/DTD/svg11.dtd">
<svg xmlns="http://www.w3.org/2000/svg" version="1.1" viewBox="0.00 0.00 303.00 288.00">
<g stroke-width="2.00" fill="none" stroke-linecap="butt">
<path stroke="#818182" vector-effect="non-scaling-stroke" d="
  M 303.00 0.81
  L 0.00 1.04"
/>
<path stroke="#dd9797" vector-effect="non-scaling-stroke" d="
  M 29.00 5.13
  Q 15.77 5.13 2.65 4.86
  Q 2.45 4.86 2.31 5.08
  Q 2.22 5.21 2.22 5.45
  Q 2.25 71.97 2.22 138.67
  Q 2.22 139.96 2.89 138.85
  C 10.67 125.91 19.53 115.45 33.29 107.04
  Q 54.15 94.28 81.15 90.17
  Q 87.38 89.22 93.82 88.50
  Q 94.29 88.45 94.29 87.97
  L 94.32 5.60
  Q 94.32 5.13 93.85 5.13
  L 29.00 5.13"
/>
<path stroke="#9389ad" vector-effect="non-scaling-stroke" d="
  M 202.57 5.70
  Q 202.40 6.06 202.40 6.50
  Q 202.21 44.87 202.25 83.25
  Q 202.28 107.72 188.63 127.86
  C 170.99 153.89 144.73 167.03 115.77 176.71
  Q 115.24 176.88 115.78 177.04
  C 136.07 183.09 157.56 183.78 178.53 181.95
  C 188.83 181.05 198.95 178.83 208.98 176.15
  C 250.38 165.13 294.77 132.21 294.76 84.25
  Q 294.75 44.99 294.74 5.64
  Q 294.74 5.13 294.24 5.13
  L 203.46 5.14
  Q 202.84 5.14 202.57 5.70"
/>
<path stroke="#9389ad" vector-effect="non-scaling-stroke" d="
  M 94.53 198.25
  C 95.04 151.72 139.84 120.77 179.90 109.63
  Q 182.13 109.01 179.88 108.45
  C 139.25 98.30 94.42 101.13 57.04 120.94
  C 29.31 135.64 2.28 163.16 2.26 196.50
  Q 2.23 238.27 2.24 279.96
  Q 2.24 280.23 2.51 280.23
  L 93.73 280.23
  Q 93.96 280.23 93.96 280.00
  Q 94.08 239.15 94.53 198.25"
/>
<path stroke="#dd9797" vector-effect="non-scaling-stroke" d="
  M 266.26 176.43
  C 247.26 188.84 225.17 195.85 202.62 197.38
  A 0.60 0.60 0.0 0 0 202.06 197.98
  L 202.01 279.97
  Q 202.01 280.43 202.47 280.43
  L 294.30 280.15
  Q 294.75 280.15 294.75 279.70
  L 294.75 147.47
  Q 294.75 145.42 293.67 147.17
  C 286.73 158.42 277.47 169.11 266.26 176.43"
/>
</g>
<path fill="#020204" d="
  M 0.00 0.00
  L 303.00 0.00
  L 303.00 0.81
  L 0.00 1.04
  L 0.00 0.00
  Z"
/>
<path fill="#ffffff" d="
  M 303.00 0.81
  L 303.00 288.00
  L 0.00 288.00
  L 0.00 1.04
  L 303.00 0.81
  Z
  M 29.00 5.13
  Q 15.77 5.13 2.65 4.86
  Q 2.45 4.86 2.31 5.08
  Q 2.22 5.21 2.22 5.45
  Q 2.25 71.97 2.22 138.67
  Q 2.22 139.96 2.89 138.85
  C 10.67 125.91 19.53 115.45 33.29 107.04
  Q 54.15 94.28 81.15 90.17
  Q 87.38 89.22 93.82 88.50
  Q 94.29 88.45 94.29 87.97
  L 94.32 5.60
  Q 94.32 5.13 93.85 5.13
  L 29.00 5.13
  Z
  M 202.57 5.70
  Q 202.40 6.06 202.40 6.50
  Q 202.21 44.87 202.25 83.25
  Q 202.28 107.72 188.63 127.86
  C 170.99 153.89 144.73 167.03 115.77 176.71
  Q 115.24 176.88 115.78 177.04
  C 136.07 183.09 157.56 183.78 178.53 181.95
  C 188.83 181.05 198.95 178.83 208.98 176.15
  C 250.38 165.13 294.77 132.21 294.76 84.25
  Q 294.75 44.99 294.74 5.64
  Q 294.74 5.13 294.24 5.13
  L 203.46 5.14
  Q 202.84 5.14 202.57 5.70
  Z
  M 94.53 198.25
  C 95.04 151.72 139.84 120.77 179.90 109.63
  Q 182.13 109.01 179.88 108.45
  C 139.25 98.30 94.42 101.13 57.04 120.94
  C 29.31 135.64 2.28 163.16 2.26 196.50
  Q 2.23 238.27 2.24 279.96
  Q 2.24 280.23 2.51 280.23
  L 93.73 280.23
  Q 93.96 280.23 93.96 280.00
  Q 94.08 239.15 94.53 198.25
  Z
  M 266.26 176.43
  C 247.26 188.84 225.17 195.85 202.62 197.38
  A 0.60 0.60 0.0 0 0 202.06 197.98
  L 202.01 279.97
  Q 202.01 280.43 202.47 280.43
  L 294.30 280.15
  Q 294.75 280.15 294.75 279.70
  L 294.75 147.47
  Q 294.75 145.42 293.67 147.17
  C 286.73 158.42 277.47 169.11 266.26 176.43
  Z"
/>
<path fill="#bb2e2e" d="
  M 29.00 5.13
  L 93.85 5.13
  Q 94.32 5.13 94.32 5.60
  L 94.29 87.97
  Q 94.29 88.45 93.82 88.50
  Q 87.38 89.22 81.15 90.17
  Q 54.15 94.28 33.29 107.04
  C 19.53 115.45 10.67 125.91 2.89 138.85
  Q 2.22 139.96 2.22 138.67
  Q 2.25 71.97 2.22 5.45
  Q 2.22 5.21 2.31 5.08
  Q 2.45 4.86 2.65 4.86
  Q 15.77 5.13 29.00 5.13
  Z"
/>
<path fill="#26125b" d="
  M 202.57 5.70
  Q 202.84 5.14 203.46 5.14
  L 294.24 5.13
  Q 294.74 5.13 294.74 5.64
  Q 294.75 44.99 294.76 84.25
  C 294.77 132.21 250.38 165.13 208.98 176.15
  C 198.95 178.83 188.83 181.05 178.53 181.95
  C 157.56 183.78 136.07 183.09 115.78 177.04
  Q 115.24 176.88 115.77 176.71
  C 144.73 167.03 170.99 153.89 188.63 127.86
  Q 202.28 107.72 202.25 83.25
  Q 202.21 44.87 202.40 6.50
  Q 202.40 6.06 202.57 5.70
  Z"
/>
<path fill="#26125b" d="
  M 179.90 109.63
  C 139.84 120.77 95.04 151.72 94.53 198.25
  Q 94.08 239.15 93.96 280.00
  Q 93.96 280.23 93.73 280.23
  L 2.51 280.23
  Q 2.24 280.23 2.24 279.96
  Q 2.23 238.27 2.26 196.50
  C 2.28 163.16 29.31 135.64 57.04 120.94
  C 94.42 101.13 139.25 98.30 179.88 108.45
  Q 182.13 109.01 179.90 109.63
  Z"
/>
<path fill="#bb2e2e" d="
  M 202.62 197.38
  C 225.17 195.85 247.26 188.84 266.26 176.43
  C 277.47 169.11 286.73 158.42 293.67 147.17
  Q 294.75 145.42 294.75 147.47
  L 294.75 279.70
  Q 294.75 280.15 294.30 280.15
  L 202.47 280.43
  Q 202.01 280.43 202.01 279.97
  L 202.06 197.98
  A 0.60 0.60 0.0 0 1 202.62 197.38
  Z"
/>
</svg>
