<?xml version="1.0" encoding="UTF-8"?>
<svg version="1.1" xmlns="http://www.w3.org/2000/svg" width="1106" height="290">
<path d="M0,0 L1106,0 L1106,290 L0,290 Z " fill="#FDFDFD" transform="translate(0,0)"/>
<path d="M0,0 L93,0 L93,89 L92,89 L92,93 L91,93 L91,98 L90,98 L90,102 L89,102 L89,104 L88,104 L88,107 L87,107 L87,110 L86,110 L86,112 L85,112 L85,114 L84,114 L84,116 L83,116 L83,117 L82,117 L82,119 L81,119 L81,121 L80,121 L80,122 L79,122 L79,124 L78,124 L78,125 L77,125 L77,127 L76,127 L76,128 L75,128 L75,129 L74,129 L74,131 L73,131 L73,132 L72,132 L72,133 L71,133 L71,134 L70,134 L70,135 L69,135 L69,136 L68,136 L68,137 L67,137 L67,138 L66,138 L66,139 L65,139 L65,140 L64,140 L64,141 L63,141 L63,142 L61,142 L61,143 L60,143 L60,144 L59,144 L59,145 L58,145 L58,146 L57,146 L57,147 L55,147 L55,148 L54,148 L54,149 L52,149 L52,150 L51,150 L51,151 L49,151 L49,152 L48,152 L48,153 L47,153 L47,154 L45,154 L45,155 L43,155 L43,156 L42,156 L42,157 L40,157 L40,158 L38,158 L38,160 L36,160 L36,161 L34,161 L34,162 L32,162 L32,163 L28,163 L28,164 L26,164 L26,165 L25,165 L25,166 L21,166 L21,167 L18,167 L18,168 L15,168 L15,169 L12,169 L12,170 L8,170 L8,171 L4,171 L4,172 L0,172 L0,174 L-8,174 L-8,175 L-10,175 L-10,176 L-22,176 L-22,177 L-63,177 L-63,176 L-69,176 L-69,175 L-76,175 L-76,174 L-80,174 L-80,173 L-83,173 L-83,172 L-84,172 L-84,170 L-81,170 L-81,169 L-78,169 L-78,168 L-75,168 L-75,167 L-73,167 L-73,166 L-70,166 L-70,165 L-68,165 L-68,164 L-65,164 L-65,163 L-63,163 L-63,162 L-59,162 L-59,161 L-57,161 L-57,159 L-55,159 L-55,158 L-53,158 L-53,157 L-51,157 L-51,156 L-50,156 L-50,155 L-48,155 L-48,154 L-46,154 L-46,153 L-45,153 L-45,152 L-43,152 L-43,151 L-41,151 L-41,150 L-40,150 L-40,149 L-39,149 L-39,148 L-37,148 L-37,147 L-36,147 L-36,146 L-34,146 L-34,145 L-33,145 L-33,144 L-32,144 L-32,143 L-31,143 L-31,142 L-29,142 L-29,141 L-28,141 L-28,140 L-27,140 L-27,139 L-26,139 L-26,138 L-25,138 L-25,137 L-24,137 L-24,136 L-23,136 L-23,135 L-22,135 L-22,133 L-21,133 L-21,132 L-20,132 L-20,131 L-19,131 L-19,130 L-18,130 L-18,129 L-17,129 L-17,127 L-16,127 L-16,126 L-15,126 L-15,125 L-14,125 L-14,123 L-13,123 L-13,122 L-12,122 L-12,120 L-11,120 L-11,119 L-10,119 L-10,117 L-9,117 L-9,115 L-8,115 L-8,113 L-7,113 L-7,111 L-6,111 L-6,108 L-5,108 L-5,106 L-4,106 L-4,103 L-3,103 L-3,100 L-2,100 L-2,95 L-1,95 L-1,91 L0,91 Z " fill="#27135C" transform="translate(202,4)"/>
<path d="M0,0 L30,0 L30,1 L36,1 L36,2 L44,2 L44,3 L49,3 L49,4 L59,4 L59,5 L60,5 L60,7 L58,7 L58,8 L55,8 L55,9 L52,9 L52,10 L47,10 L47,12 L44,12 L44,13 L40,13 L40,14 L39,14 L39,15 L37,15 L37,16 L35,16 L35,17 L33,17 L33,18 L31,18 L31,19 L27,19 L27,20 L26,20 L26,21 L24,21 L24,22 L22,22 L22,23 L21,23 L21,24 L19,24 L19,25 L17,25 L17,26 L16,26 L16,27 L15,27 L15,28 L13,28 L13,29 L12,29 L12,30 L11,30 L11,31 L9,31 L9,32 L8,32 L8,33 L7,33 L7,34 L6,34 L6,35 L4,35 L4,37 L3,37 L3,38 L2,38 L2,39 L1,39 L1,40 L0,40 L0,41 L-1,41 L-1,42 L-3,42 L-3,44 L-4,44 L-4,45 L-5,45 L-5,46 L-6,46 L-6,47 L-7,47 L-7,48 L-8,48 L-8,50 L-9,50 L-9,51 L-10,51 L-10,52 L-11,52 L-11,54 L-12,54 L-12,55 L-13,55 L-13,57 L-14,57 L-14,58 L-15,58 L-15,60 L-16,60 L-16,62 L-17,62 L-17,64 L-18,64 L-18,66 L-19,66 L-19,68 L-20,68 L-20,70 L-21,70 L-21,73 L-22,73 L-22,75 L-23,75 L-23,79 L-24,79 L-24,83 L-25,83 L-25,93 L-26,93 L-26,177 L-118,177 L-118,87 L-117,87 L-117,80 L-116,80 L-116,77 L-115,77 L-115,73 L-114,73 L-114,71 L-113,71 L-113,68 L-112,68 L-112,66 L-111,66 L-111,64 L-110,64 L-110,62 L-109,62 L-109,60 L-108,60 L-108,59 L-107,59 L-107,57 L-106,57 L-106,55 L-105,55 L-105,54 L-104,54 L-104,52 L-103,52 L-103,51 L-102,51 L-102,50 L-101,50 L-101,48 L-100,48 L-100,47 L-99,47 L-99,46 L-98,46 L-98,45 L-97,45 L-97,43 L-96,43 L-96,42 L-94,42 L-94,41 L-93,41 L-93,40 L-92,40 L-92,39 L-91,39 L-91,38 L-90,38 L-90,37 L-89,37 L-89,36 L-88,36 L-88,35 L-87,35 L-87,34 L-86,34 L-86,33 L-85,33 L-85,32 L-83,32 L-83,31 L-82,31 L-82,30 L-81,30 L-81,29 L-80,29 L-80,28 L-79,28 L-79,27 L-77,27 L-77,26 L-76,26 L-76,25 L-74,25 L-74,24 L-73,24 L-73,23 L-71,23 L-71,22 L-70,22 L-70,21 L-66,21 L-66,20 L-65,20 L-65,19 L-63,19 L-63,18 L-61,18 L-61,17 L-59,17 L-59,16 L-57,16 L-57,15 L-55,15 L-55,14 L-53,14 L-53,12 L-50,12 L-50,11 L-44,11 L-44,10 L-43,10 L-43,9 L-40,9 L-40,8 L-37,8 L-37,7 L-34,7 L-34,6 L-30,6 L-30,5 L-26,5 L-26,4 L-21,4 L-21,3 L-16,3 L-16,2 L-10,2 L-10,1 L0,1 Z " fill="#27135B" transform="translate(120,102)"/>
<path d="M0,0 L96,0 L96,1 L97,1 L97,2 L96,2 L96,100 L95,100 L95,111 L94,111 L94,118 L93,118 L93,123 L92,123 L92,126 L91,126 L91,130 L90,130 L90,132 L89,132 L89,135 L88,135 L88,137 L87,137 L87,139 L86,139 L86,140 L85,140 L85,142 L84,142 L84,143 L83,143 L83,145 L82,145 L82,146 L81,146 L81,147 L80,147 L80,148 L79,148 L79,149 L78,149 L78,150 L77,150 L77,151 L75,151 L75,152 L74,152 L74,153 L72,153 L72,155 L70,155 L70,156 L68,156 L68,157 L64,157 L64,158 L62,158 L62,159 L57,159 L57,160 L41,160 L41,159 L35,159 L35,158 L30,158 L30,157 L26,157 L26,156 L25,156 L25,155 L23,155 L23,154 L22,154 L22,153 L21,153 L21,152 L20,152 L20,151 L19,151 L19,149 L18,149 L18,148 L17,148 L17,147 L16,147 L16,146 L15,146 L15,144 L14,144 L14,142 L13,142 L13,140 L12,140 L12,138 L11,138 L11,135 L10,135 L10,132 L9,132 L9,128 L8,128 L8,122 L7,122 L7,118 L6,118 L6,102 L5,102 L5,2 L6,2 L6,1 L0,1 Z " fill="#FEFDFD" transform="translate(864,0)"/>
<path d="M0,0 L93,0 L93,84 L87,84 L87,85 L80,85 L80,86 L73,86 L73,87 L69,87 L69,88 L65,88 L65,89 L61,89 L61,90 L58,90 L58,91 L55,91 L55,92 L52,92 L52,93 L50,93 L50,94 L47,94 L47,95 L45,95 L45,96 L41,96 L41,97 L39,97 L39,98 L37,98 L37,99 L35,99 L35,100 L33,100 L33,101 L32,101 L32,102 L30,102 L30,103 L29,103 L29,104 L27,104 L27,105 L26,105 L26,106 L25,106 L25,107 L23,107 L23,108 L22,108 L22,109 L21,109 L21,110 L20,110 L20,111 L18,111 L18,113 L16,113 L16,114 L15,114 L15,115 L14,115 L14,116 L13,116 L13,117 L12,117 L12,119 L11,119 L11,120 L10,120 L10,121 L9,121 L9,123 L8,123 L8,124 L7,124 L7,125 L6,125 L6,127 L5,127 L5,128 L4,128 L4,130 L3,130 L3,131 L2,131 L2,133 L1,133 L1,134 L0,134 Z " fill="#BB3030" transform="translate(2,4)"/>
<path d="M0,0 L1,0 L1,133 L-92,133 L-92,50 L-88,50 L-88,49 L-73,49 L-73,47 L-69,47 L-69,46 L-65,46 L-65,45 L-61,45 L-61,44 L-58,44 L-58,43 L-55,43 L-55,42 L-52,42 L-52,41 L-50,41 L-50,40 L-47,40 L-47,39 L-45,39 L-45,38 L-41,38 L-41,37 L-39,37 L-39,36 L-37,36 L-37,34 L-35,34 L-35,33 L-33,33 L-33,32 L-32,32 L-32,31 L-30,31 L-30,30 L-28,30 L-28,29 L-27,29 L-27,28 L-25,28 L-25,27 L-24,27 L-24,26 L-22,26 L-22,25 L-21,25 L-21,24 L-20,24 L-20,23 L-18,23 L-18,22 L-17,22 L-17,21 L-16,21 L-16,20 L-15,20 L-15,19 L-14,19 L-14,18 L-13,18 L-13,16 L-12,16 L-12,15 L-11,15 L-11,14 L-10,14 L-10,13 L-9,13 L-9,12 L-8,12 L-8,11 L-7,11 L-7,9 L-6,9 L-6,8 L-5,8 L-5,7 L-4,7 L-4,5 L-3,5 L-3,4 L-2,4 L-2,2 L-1,2 L-1,1 L0,1 Z " fill="#BB2F2F" transform="translate(294,146)"/>
<path d="M0,0 L9,0 L9,1 L12,1 L12,2 L16,2 L16,3 L18,3 L18,4 L19,4 L19,5 L21,5 L21,6 L22,6 L22,7 L23,7 L23,8 L24,8 L24,9 L25,9 L25,10 L26,10 L26,11 L27,11 L27,13 L28,13 L28,14 L29,14 L29,16 L30,16 L30,19 L31,19 L31,21 L32,21 L32,25 L33,25 L33,29 L34,29 L34,34 L35,34 L35,44 L36,44 L36,60 L35,60 L35,71 L34,71 L34,75 L33,75 L33,80 L32,80 L32,83 L31,83 L31,86 L30,86 L30,88 L29,88 L29,91 L28,91 L28,93 L27,93 L27,95 L26,95 L26,96 L25,96 L25,97 L24,97 L24,98 L23,98 L23,100 L22,100 L22,101 L21,101 L21,102 L20,102 L20,103 L19,103 L19,104 L17,104 L17,105 L16,105 L16,106 L14,106 L14,107 L13,107 L13,108 L11,108 L11,109 L8,109 L8,110 L5,110 L5,111 L0,111 L0,112 L-16,112 L-16,111 L-22,111 L-22,110 L-26,110 L-26,109 L-28,109 L-28,108 L-31,108 L-31,107 L-33,107 L-33,32 L-32,32 L-32,28 L-31,28 L-31,26 L-30,26 L-30,24 L-29,24 L-29,22 L-28,22 L-28,21 L-27,21 L-27,19 L-26,19 L-26,18 L-25,18 L-25,17 L-24,17 L-24,16 L-23,16 L-23,15 L-22,15 L-22,14 L-21,14 L-21,13 L-20,13 L-20,12 L-19,12 L-19,11 L-18,11 L-18,10 L-17,10 L-17,9 L-16,9 L-16,8 L-15,8 L-15,7 L-14,7 L-14,6 L-12,6 L-12,5 L-11,5 L-11,4 L-9,4 L-9,3 L-7,3 L-7,2 L-4,2 L-4,1 L0,1 Z " fill="#FEFDFD" transform="translate(1038,49)"/>
<path d="M0,0 L20,0 L20,73 L93,73 L93,0 L112,0 L112,160 L93,160 L93,76 L19,76 L19,159 L0,159 Z " fill="#BC3232" transform="translate(325,3)"/>
<path d="M0,0 L87,0 L87,1 L93,1 L93,2 L92,2 L92,3 L73,3 L73,76 L0,76 L0,3 L-1,3 L-1,1 L0,1 Z " fill="#FEFEFE" transform="translate(345,0)"/>
<path d="M0,0 L27,0 L27,1 L31,1 L31,2 L35,2 L35,3 L37,3 L37,4 L40,4 L40,5 L41,5 L41,6 L42,6 L42,7 L44,7 L44,8 L45,8 L45,9 L46,9 L46,11 L47,11 L47,12 L48,12 L48,14 L49,14 L49,16 L50,16 L50,87 L51,87 L51,104 L52,104 L52,107 L53,107 L53,109 L54,109 L54,110 L55,110 L55,111 L57,111 L57,112 L66,112 L66,113 L68,113 L68,114 L52,114 L52,113 L48,113 L48,112 L43,112 L43,111 L42,111 L42,110 L41,110 L41,109 L40,109 L40,108 L39,108 L39,107 L38,107 L38,106 L37,106 L37,105 L36,105 L36,103 L35,103 L35,100 L34,100 L34,97 L33,97 L33,98 L32,98 L32,99 L31,99 L31,101 L30,101 L30,102 L29,102 L29,103 L28,103 L28,104 L27,104 L27,105 L26,105 L26,106 L25,106 L25,107 L24,107 L24,108 L22,108 L22,110 L20,110 L20,111 L18,111 L18,112 L16,112 L16,113 L12,113 L12,114 L8,114 L8,115 L-14,115 L-14,114 L-17,114 L-17,113 L-19,113 L-19,112 L-21,112 L-21,110 L-23,110 L-23,109 L-25,109 L-25,108 L-26,108 L-26,107 L-27,107 L-27,105 L-28,105 L-28,104 L-29,104 L-29,103 L-30,103 L-30,101 L-31,101 L-31,99 L-32,99 L-32,96 L-33,96 L-33,93 L-34,93 L-34,89 L-35,89 L-35,80 L-34,80 L-34,77 L-33,77 L-33,75 L-32,75 L-32,73 L-31,73 L-31,72 L-30,72 L-30,71 L-29,71 L-29,70 L-28,70 L-28,69 L-27,69 L-27,68 L-26,68 L-26,67 L-25,67 L-25,66 L-21,66 L-21,65 L-19,65 L-19,64 L-16,64 L-16,63 L-11,63 L-11,62 L-6,62 L-6,60 L34,60 L34,15 L33,15 L33,13 L32,13 L32,11 L31,11 L31,10 L30,10 L30,9 L29,9 L29,8 L28,8 L28,7 L27,7 L27,6 L26,6 L26,5 L24,5 L24,4 L21,4 L21,3 L16,3 L16,2 L1,2 L1,3 L-5,3 L-5,4 L-8,4 L-8,5 L-11,5 L-11,6 L-14,6 L-14,7 L-17,7 L-17,8 L-21,8 L-21,9 L-24,9 L-24,10 L-27,10 L-27,11 L-28,11 L-28,9 L-26,9 L-26,8 L-24,8 L-24,7 L-22,7 L-22,6 L-20,6 L-20,5 L-17,5 L-17,4 L-14,4 L-14,3 L-10,3 L-10,2 L-6,2 L-6,1 L0,1 Z " fill="#BC3131" transform="translate(605,48)"/>
<path d="M0,0 L21,0 L21,2 L25,2 L25,3 L28,3 L28,4 L31,4 L31,5 L33,5 L33,6 L35,6 L35,7 L36,7 L36,8 L38,8 L38,9 L39,9 L39,10 L41,10 L41,11 L42,11 L42,12 L43,12 L43,13 L44,13 L44,14 L45,14 L45,15 L46,15 L46,16 L47,16 L47,17 L48,17 L48,19 L49,19 L49,20 L50,20 L50,22 L51,22 L51,24 L52,24 L52,26 L53,26 L53,29 L54,29 L54,34 L55,34 L55,43 L56,43 L56,48 L-26,48 L-26,74 L-25,74 L-25,81 L-24,81 L-24,85 L-23,85 L-23,89 L-22,89 L-22,92 L-21,92 L-21,95 L-20,95 L-20,97 L-19,97 L-19,98 L-18,98 L-18,100 L-17,100 L-17,101 L-16,101 L-16,102 L-15,102 L-15,104 L-14,104 L-14,105 L-13,105 L-13,106 L-12,106 L-12,107 L-11,107 L-11,108 L-9,108 L-9,109 L-8,109 L-8,110 L-6,110 L-6,111 L-4,111 L-4,112 L1,112 L1,113 L25,113 L25,112 L31,112 L31,111 L36,111 L36,110 L41,110 L41,109 L45,109 L45,108 L48,108 L48,107 L51,107 L51,109 L49,109 L49,110 L46,110 L46,112 L38,112 L38,113 L34,113 L34,115 L29,115 L29,116 L-4,116 L-4,115 L-8,115 L-8,113 L-11,113 L-11,112 L-13,112 L-13,111 L-15,111 L-15,110 L-19,110 L-19,109 L-20,109 L-20,108 L-22,108 L-22,107 L-23,107 L-23,106 L-25,106 L-25,104 L-27,104 L-27,103 L-28,103 L-28,102 L-29,102 L-29,101 L-30,101 L-30,100 L-31,100 L-31,98 L-32,98 L-32,97 L-33,97 L-33,96 L-34,96 L-34,94 L-35,94 L-35,92 L-36,92 L-36,90 L-37,90 L-37,88 L-38,88 L-38,86 L-39,86 L-39,82 L-40,82 L-40,78 L-41,78 L-41,74 L-42,74 L-42,46 L-41,46 L-41,41 L-40,41 L-40,38 L-39,38 L-39,35 L-38,35 L-38,32 L-37,32 L-37,30 L-36,30 L-36,28 L-35,28 L-35,26 L-34,26 L-34,25 L-33,25 L-33,23 L-32,23 L-32,22 L-31,22 L-31,20 L-30,20 L-30,19 L-29,19 L-29,18 L-28,18 L-28,17 L-27,17 L-27,16 L-26,16 L-26,15 L-25,15 L-25,14 L-24,14 L-24,13 L-23,13 L-23,12 L-22,12 L-22,11 L-21,11 L-21,10 L-20,10 L-20,9 L-18,9 L-18,8 L-16,8 L-16,7 L-14,7 L-14,6 L-13,6 L-13,5 L-10,5 L-10,4 L-7,4 L-7,3 L-4,3 L-4,2 L0,2 Z " fill="#BC3333" transform="translate(500,47)"/>
<path d="M0,0 L12,0 L12,1 L14,1 L14,2 L17,2 L17,3 L21,3 L21,4 L23,4 L23,5 L25,5 L25,6 L27,6 L27,7 L29,7 L29,8 L30,8 L30,9 L32,9 L32,10 L33,10 L33,11 L34,11 L34,12 L35,12 L35,13 L36,13 L36,14 L37,14 L37,15 L38,15 L38,16 L39,16 L39,18 L40,18 L40,19 L41,19 L41,21 L42,21 L42,23 L43,23 L43,25 L44,25 L44,28 L45,28 L45,31 L46,31 L46,35 L47,35 L47,41 L48,41 L48,70 L47,70 L47,74 L46,74 L46,78 L45,78 L45,82 L44,82 L44,85 L43,85 L43,87 L42,87 L42,89 L41,89 L41,91 L40,91 L40,93 L39,93 L39,94 L38,94 L38,96 L37,96 L37,97 L36,97 L36,98 L35,98 L35,99 L34,99 L34,101 L33,101 L33,102 L32,102 L32,103 L30,103 L30,104 L29,104 L29,105 L28,105 L28,106 L26,106 L26,107 L25,107 L25,108 L23,108 L23,109 L21,109 L21,110 L19,110 L19,111 L16,111 L16,112 L13,112 L13,114 L9,114 L9,115 L6,115 L6,116 L-1,116 L-1,117 L-18,117 L-18,116 L-26,116 L-26,115 L-30,115 L-30,114 L-33,114 L-33,113 L-36,113 L-36,172 L-52,172 L-52,2 L-36,2 L-36,28 L-35,28 L-35,26 L-34,26 L-34,25 L-33,25 L-33,23 L-32,23 L-32,21 L-31,21 L-31,20 L-30,20 L-30,19 L-29,19 L-29,17 L-28,17 L-28,16 L-27,16 L-27,15 L-26,15 L-26,14 L-25,14 L-25,13 L-24,13 L-24,12 L-23,12 L-23,11 L-22,11 L-22,10 L-21,10 L-21,9 L-20,9 L-20,8 L-18,8 L-18,7 L-17,7 L-17,6 L-15,6 L-15,5 L-14,5 L-14,4 L-12,4 L-12,3 L-10,3 L-10,2 L-6,2 L-6,1 L0,1 Z M-3,2 L-3,3 L-7,3 L-7,4 L-10,4 L-10,5 L-12,5 L-12,6 L-14,6 L-14,7 L-15,7 L-15,8 L-17,8 L-17,9 L-18,9 L-18,10 L-19,10 L-19,11 L-20,11 L-20,12 L-21,12 L-21,13 L-22,13 L-22,14 L-23,14 L-23,15 L-24,15 L-24,16 L-25,16 L-25,17 L-26,17 L-26,18 L-27,18 L-27,19 L-28,19 L-28,20 L-29,20 L-29,21 L-30,21 L-30,23 L-31,23 L-31,24 L-32,24 L-32,26 L-33,26 L-33,28 L-34,28 L-34,30 L-35,30 L-35,34 L-36,34 L-36,109 L-34,109 L-34,110 L-31,110 L-31,111 L-29,111 L-29,112 L-25,112 L-25,113 L-19,113 L-19,114 L-3,114 L-3,113 L2,113 L2,112 L5,112 L5,111 L8,111 L8,110 L10,110 L10,109 L11,109 L11,108 L13,108 L13,107 L14,107 L14,106 L16,106 L16,105 L17,105 L17,104 L18,104 L18,103 L19,103 L19,102 L20,102 L20,100 L21,100 L21,99 L22,99 L22,98 L23,98 L23,97 L24,97 L24,95 L25,95 L25,93 L26,93 L26,90 L27,90 L27,88 L28,88 L28,85 L29,85 L29,82 L30,82 L30,77 L31,77 L31,73 L32,73 L32,62 L33,62 L33,46 L32,46 L32,36 L31,36 L31,31 L30,31 L30,27 L29,27 L29,23 L28,23 L28,21 L27,21 L27,18 L26,18 L26,16 L25,16 L25,15 L24,15 L24,13 L23,13 L23,12 L22,12 L22,11 L21,11 L21,10 L20,10 L20,9 L19,9 L19,8 L18,8 L18,7 L16,7 L16,6 L15,6 L15,5 L13,5 L13,4 L9,4 L9,3 L6,3 L6,2 Z " fill="#BB2E2E" transform="translate(1041,47)"/>
<path d="M0,0 L19,0 L19,99 L20,99 L20,115 L21,115 L21,119 L22,119 L22,125 L23,125 L23,129 L24,129 L24,132 L25,132 L25,135 L26,135 L26,137 L27,137 L27,139 L28,139 L28,141 L29,141 L29,143 L30,143 L30,144 L31,144 L31,145 L32,145 L32,146 L33,146 L33,148 L34,148 L34,149 L35,149 L35,150 L36,150 L36,151 L37,151 L37,152 L39,152 L39,153 L40,153 L40,154 L44,154 L44,155 L49,155 L49,156 L55,156 L55,157 L71,157 L71,156 L76,156 L76,155 L78,155 L78,154 L82,154 L82,153 L84,153 L84,152 L86,152 L86,150 L88,150 L88,149 L89,149 L89,148 L91,148 L91,147 L92,147 L92,146 L93,146 L93,145 L94,145 L94,144 L95,144 L95,143 L96,143 L96,142 L97,142 L97,140 L98,140 L98,139 L99,139 L99,137 L100,137 L100,136 L101,136 L101,134 L102,134 L102,132 L103,132 L103,129 L104,129 L104,127 L105,127 L105,123 L106,123 L106,120 L107,120 L107,115 L108,115 L108,108 L109,108 L109,97 L110,97 L110,0 L113,0 L113,105 L112,105 L112,112 L111,112 L111,116 L110,116 L110,121 L109,121 L109,124 L108,124 L108,127 L107,127 L107,130 L106,130 L106,133 L105,133 L105,135 L104,135 L104,137 L103,137 L103,138 L102,138 L102,140 L101,140 L101,141 L100,141 L100,143 L99,143 L99,144 L98,144 L98,145 L97,145 L97,146 L96,146 L96,147 L95,147 L95,148 L94,148 L94,149 L93,149 L93,150 L91,150 L91,151 L90,151 L90,152 L89,152 L89,153 L87,153 L87,154 L85,154 L85,155 L83,155 L83,156 L81,156 L81,158 L78,158 L78,159 L75,159 L75,160 L58,160 L58,159 L42,159 L42,158 L37,158 L37,157 L34,157 L34,156 L31,156 L31,155 L27,155 L27,154 L26,154 L26,153 L24,153 L24,151 L21,151 L21,150 L20,150 L20,149 L19,149 L19,148 L17,148 L17,147 L16,147 L16,145 L15,145 L15,144 L14,144 L14,143 L13,143 L13,142 L12,142 L12,141 L11,141 L11,139 L10,139 L10,138 L9,138 L9,136 L8,136 L8,134 L7,134 L7,131 L6,131 L6,129 L5,129 L5,126 L4,126 L4,122 L3,122 L3,119 L2,119 L2,111 L1,111 L1,104 L0,104 Z " fill="#BC3131" transform="translate(850,3)"/>
<path d="M0,0 L4,0 L4,1 L5,1 L5,2 L6,2 L6,3 L7,3 L7,4 L8,4 L8,5 L9,5 L9,6 L10,6 L10,7 L11,7 L11,15 L10,15 L10,17 L9,17 L9,18 L8,18 L8,19 L7,19 L7,20 L6,20 L6,21 L4,21 L4,22 L-4,22 L-4,21 L-6,21 L-6,20 L-7,20 L-7,19 L-8,19 L-8,17 L-9,17 L-9,15 L-10,15 L-10,10 L-11,10 L-11,7 L-12,7 L-12,8 L-13,8 L-13,9 L-15,9 L-15,10 L-16,10 L-16,11 L-17,11 L-17,12 L-19,12 L-19,13 L-20,13 L-20,14 L-21,14 L-21,15 L-22,15 L-22,16 L-23,16 L-23,17 L-24,17 L-24,18 L-25,18 L-25,19 L-26,19 L-26,21 L-27,21 L-27,22 L-28,22 L-28,23 L-29,23 L-29,25 L-30,25 L-30,26 L-31,26 L-31,28 L-32,28 L-32,30 L-33,30 L-33,32 L-34,32 L-34,34 L-35,34 L-35,37 L-36,37 L-36,42 L-37,42 L-37,116 L-54,116 L-54,2 L-37,2 L-37,33 L-36,33 L-36,31 L-35,31 L-35,29 L-34,29 L-34,27 L-33,27 L-33,25 L-32,25 L-32,23 L-31,23 L-31,22 L-30,22 L-30,20 L-29,20 L-29,19 L-28,19 L-28,17 L-27,17 L-27,16 L-26,16 L-26,15 L-25,15 L-25,14 L-24,14 L-24,12 L-23,12 L-23,11 L-22,11 L-22,10 L-21,10 L-21,9 L-19,9 L-19,8 L-18,8 L-18,7 L-17,7 L-17,6 L-16,6 L-16,5 L-14,5 L-14,4 L-12,4 L-12,3 L-9,3 L-9,2 L-5,2 L-5,1 L0,1 Z " fill="#BD3434" transform="translate(739,47)"/>
<path d="M0,0 L17,0 L17,23 L50,23 L50,24 L48,24 L48,25 L17,25 L17,117 L18,117 L18,122 L19,122 L19,126 L20,126 L20,128 L21,128 L21,130 L22,130 L22,131 L23,131 L23,133 L25,133 L25,134 L42,134 L42,133 L47,133 L47,132 L52,132 L52,131 L56,131 L56,130 L58,130 L58,132 L56,132 L56,133 L54,133 L54,134 L52,134 L52,135 L49,135 L49,136 L45,136 L45,137 L27,137 L27,136 L19,136 L19,135 L17,135 L17,134 L11,134 L11,133 L10,133 L10,132 L9,132 L9,131 L8,131 L8,130 L7,130 L7,129 L6,129 L6,128 L5,128 L5,126 L4,126 L4,124 L3,124 L3,121 L2,121 L2,116 L1,116 L1,26 L-2,26 L-2,25 L-5,25 L-5,24 L-4,24 L-4,23 L0,23 Z " fill="#BB3030" transform="translate(770,26)"/>
<path d="M0,0 L31,0 L31,26 L30,26 L30,30 L29,30 L29,33 L28,33 L28,35 L27,35 L27,36 L26,36 L26,37 L25,37 L25,38 L24,38 L24,39 L23,39 L23,41 L21,41 L21,42 L20,42 L20,43 L19,43 L19,44 L18,44 L18,45 L17,45 L17,46 L15,46 L15,47 L13,47 L13,48 L11,48 L11,49 L9,49 L9,50 L5,50 L5,51 L-7,51 L-7,50 L-10,50 L-10,49 L-12,49 L-12,48 L-14,48 L-14,47 L-15,47 L-15,46 L-16,46 L-16,45 L-17,45 L-17,44 L-18,44 L-18,42 L-19,42 L-19,39 L-20,39 L-20,37 L-21,37 L-21,32 L-22,32 L-22,15 L-21,15 L-21,13 L-20,13 L-20,11 L-19,11 L-19,9 L-18,9 L-18,8 L-17,8 L-17,7 L-16,7 L-16,6 L-15,6 L-15,5 L-14,5 L-14,4 L-13,4 L-13,3 L-8,3 L-8,2 L-5,2 L-5,1 L0,1 Z " fill="#FEFCFC" transform="translate(609,110)"/>
<path d="M0,0 L17,0 L17,1 L19,1 L19,2 L21,2 L21,3 L23,3 L23,4 L24,4 L24,5 L25,5 L25,6 L26,6 L26,7 L27,7 L27,8 L29,8 L29,10 L30,10 L30,11 L31,11 L31,13 L32,13 L32,15 L33,15 L33,17 L34,17 L34,19 L35,19 L35,22 L36,22 L36,26 L37,26 L37,33 L38,33 L38,42 L-27,42 L-27,35 L-26,35 L-26,30 L-25,30 L-25,27 L-24,27 L-24,25 L-23,25 L-23,22 L-22,22 L-22,20 L-21,20 L-21,19 L-20,19 L-20,17 L-19,17 L-19,15 L-18,15 L-18,14 L-17,14 L-17,12 L-16,12 L-16,11 L-15,11 L-15,10 L-14,10 L-14,9 L-13,9 L-13,8 L-12,8 L-12,7 L-11,7 L-11,6 L-9,6 L-9,5 L-8,5 L-8,4 L-7,4 L-7,3 L-5,3 L-5,2 L-3,2 L-3,1 L0,1 Z " fill="#FEFCFC" transform="translate(502,50)"/>
<path d="M0,0 L12,0 L12,1 L14,1 L14,2 L17,2 L17,3 L21,3 L21,4 L23,4 L23,5 L25,5 L25,6 L27,6 L27,7 L29,7 L29,8 L30,8 L30,9 L32,9 L32,10 L33,10 L33,11 L34,11 L34,12 L35,12 L35,13 L36,13 L36,14 L37,14 L37,15 L38,15 L38,16 L39,16 L39,18 L40,18 L40,19 L41,19 L41,21 L42,21 L42,23 L43,23 L43,25 L44,25 L44,28 L45,28 L45,31 L46,31 L46,35 L47,35 L47,41 L48,41 L48,70 L47,70 L47,74 L46,74 L46,78 L45,78 L45,82 L44,82 L44,85 L43,85 L43,87 L42,87 L42,89 L41,89 L41,91 L40,91 L40,93 L39,93 L39,94 L38,94 L38,96 L37,96 L37,97 L36,97 L36,98 L35,98 L35,99 L34,99 L34,101 L33,101 L33,102 L32,102 L32,103 L30,103 L30,104 L29,104 L29,105 L28,105 L28,106 L26,106 L26,107 L25,107 L25,108 L23,108 L23,109 L21,109 L21,110 L19,110 L19,111 L16,111 L16,112 L13,112 L13,114 L9,114 L9,115 L6,115 L6,116 L-1,116 L-1,117 L-18,117 L-18,116 L-26,116 L-26,115 L-30,115 L-30,114 L-33,114 L-33,113 L-36,113 L-36,111 L-35,111 L-35,110 L-36,110 L-36,109 L-34,109 L-34,110 L-31,110 L-31,111 L-29,111 L-29,112 L-25,112 L-25,113 L-19,113 L-19,114 L-3,114 L-3,113 L2,113 L2,112 L5,112 L5,111 L8,111 L8,110 L10,110 L10,109 L11,109 L11,108 L13,108 L13,107 L14,107 L14,106 L16,106 L16,105 L17,105 L17,104 L18,104 L18,103 L19,103 L19,102 L20,102 L20,100 L21,100 L21,99 L22,99 L22,98 L23,98 L23,97 L24,97 L24,95 L25,95 L25,93 L26,93 L26,90 L27,90 L27,88 L28,88 L28,85 L29,85 L29,82 L30,82 L30,77 L31,77 L31,73 L32,73 L32,62 L33,62 L33,46 L32,46 L32,36 L31,36 L31,31 L30,31 L30,27 L29,27 L29,23 L28,23 L28,21 L27,21 L27,18 L26,18 L26,16 L25,16 L25,15 L24,15 L24,13 L23,13 L23,12 L22,12 L22,11 L21,11 L21,10 L20,10 L20,9 L19,9 L19,8 L18,8 L18,7 L16,7 L16,6 L15,6 L15,5 L13,5 L13,4 L9,4 L9,3 L6,3 L6,2 L-3,2 L-3,3 L-7,3 L-7,4 L-10,4 L-10,5 L-12,5 L-12,6 L-14,6 L-14,7 L-15,7 L-15,8 L-17,8 L-17,9 L-18,9 L-18,10 L-19,10 L-19,11 L-20,11 L-20,12 L-21,12 L-21,13 L-22,13 L-22,14 L-23,14 L-23,15 L-24,15 L-24,16 L-25,16 L-25,17 L-26,17 L-26,18 L-27,18 L-27,19 L-28,19 L-28,20 L-29,20 L-29,21 L-30,21 L-30,23 L-31,23 L-31,24 L-32,24 L-32,26 L-33,26 L-33,28 L-35,28 L-35,26 L-34,26 L-34,25 L-33,25 L-33,23 L-32,23 L-32,21 L-31,21 L-31,20 L-30,20 L-30,19 L-29,19 L-29,17 L-28,17 L-28,16 L-27,16 L-27,15 L-26,15 L-26,14 L-25,14 L-25,13 L-24,13 L-24,12 L-23,12 L-23,11 L-22,11 L-22,10 L-21,10 L-21,9 L-20,9 L-20,8 L-18,8 L-18,7 L-17,7 L-17,6 L-15,6 L-15,5 L-14,5 L-14,4 L-12,4 L-12,3 L-10,3 L-10,2 L-6,2 L-6,1 L0,1 Z " fill="#BC3131" transform="translate(1041,47)"/>
<path d="M0,0 L40,0 L40,2 L10,2 L10,3 L5,3 L5,4 L2,4 L2,5 L-3,5 L-3,6 L-4,6 L-4,7 L-5,7 L-5,8 L-6,8 L-6,9 L-7,9 L-7,10 L-8,10 L-8,11 L-9,11 L-9,13 L-10,13 L-10,15 L-11,15 L-11,17 L-12,17 L-12,34 L-11,34 L-11,39 L-10,39 L-10,41 L-9,41 L-9,44 L-8,44 L-8,46 L-7,46 L-7,47 L-6,47 L-6,48 L-5,48 L-5,49 L-4,49 L-4,50 L-2,50 L-2,51 L0,51 L0,52 L3,52 L3,53 L15,53 L15,52 L19,52 L19,51 L21,51 L21,50 L23,50 L23,49 L25,49 L25,48 L27,48 L27,47 L28,47 L28,46 L29,46 L29,45 L30,45 L30,44 L31,44 L31,43 L33,43 L33,41 L34,41 L34,40 L35,40 L35,39 L36,39 L36,38 L37,38 L37,37 L38,37 L38,35 L40,35 L40,37 L39,37 L39,38 L38,38 L38,39 L37,39 L37,41 L36,41 L36,42 L35,42 L35,43 L34,43 L34,44 L33,44 L33,45 L32,45 L32,46 L31,46 L31,47 L30,47 L30,48 L28,48 L28,50 L26,50 L26,51 L24,51 L24,52 L22,52 L22,53 L18,53 L18,54 L14,54 L14,55 L-8,55 L-8,54 L-11,54 L-11,53 L-13,53 L-13,52 L-15,52 L-15,50 L-17,50 L-17,49 L-19,49 L-19,48 L-20,48 L-20,47 L-21,47 L-21,45 L-22,45 L-22,44 L-23,44 L-23,43 L-24,43 L-24,41 L-25,41 L-25,39 L-26,39 L-26,36 L-27,36 L-27,33 L-28,33 L-28,29 L-29,29 L-29,20 L-28,20 L-28,17 L-27,17 L-27,15 L-26,15 L-26,13 L-25,13 L-25,12 L-24,12 L-24,11 L-23,11 L-23,10 L-22,10 L-22,9 L-21,9 L-21,8 L-20,8 L-20,7 L-19,7 L-19,6 L-15,6 L-15,5 L-13,5 L-13,4 L-10,4 L-10,3 L-5,3 L-5,2 L0,2 Z " fill="#BE3939" transform="translate(599,108)"/>
<path d="M0,0 L7,0 L7,1 L10,1 L10,2 L12,2 L12,3 L13,3 L13,4 L14,4 L14,5 L15,5 L15,6 L16,6 L16,8 L17,8 L17,11 L18,11 L18,24 L17,24 L17,27 L16,27 L16,29 L15,29 L15,31 L14,31 L14,32 L13,32 L13,33 L12,33 L12,34 L10,34 L10,35 L7,35 L7,36 L0,36 L0,35 L-3,35 L-3,34 L-5,34 L-5,33 L-6,33 L-6,32 L-7,32 L-7,31 L-8,31 L-8,29 L-9,29 L-9,27 L-10,27 L-10,23 L-11,23 L-11,11 L-10,11 L-10,9 L-9,9 L-9,7 L-8,7 L-8,5 L-7,5 L-7,4 L-6,4 L-6,3 L-5,3 L-5,2 L-3,2 L-3,1 L0,1 Z " fill="#F6F5F8" transform="translate(893,245)"/>
<path d="M0,0 L4,0 L4,1 L7,1 L7,2 L9,2 L9,3 L11,3 L11,4 L12,4 L12,5 L14,5 L14,6 L15,6 L15,7 L17,7 L17,8 L18,8 L18,9 L19,9 L19,10 L20,10 L20,11 L21,11 L21,12 L22,12 L22,13 L23,13 L23,14 L24,14 L24,16 L25,16 L25,17 L26,17 L26,19 L27,19 L27,21 L28,21 L28,23 L29,23 L29,26 L30,26 L30,31 L31,31 L31,43 L16,43 L16,33 L15,33 L15,26 L14,26 L14,22 L13,22 L13,19 L12,19 L12,17 L11,17 L11,15 L10,15 L10,13 L9,13 L9,11 L8,11 L8,10 L7,10 L7,8 L5,8 L5,7 L4,7 L4,6 L3,6 L3,5 L2,5 L2,4 L1,4 L1,2 L0,2 Z " fill="#BC3131" transform="translate(524,50)"/>
<path d="M0,0 L17,0 L17,1 L19,1 L19,2 L20,2 L20,3 L21,3 L21,4 L22,4 L22,5 L23,5 L23,13 L22,13 L22,15 L21,15 L21,16 L20,16 L20,17 L19,17 L19,18 L18,18 L18,19 L17,19 L17,22 L18,22 L18,24 L19,24 L19,26 L20,26 L20,27 L21,27 L21,29 L22,29 L22,31 L23,31 L23,33 L24,33 L24,35 L21,35 L21,34 L20,34 L20,33 L19,33 L19,32 L18,32 L18,31 L17,31 L17,30 L16,30 L16,28 L15,28 L15,26 L14,26 L14,24 L13,24 L13,23 L12,23 L12,22 L11,22 L11,21 L10,21 L10,20 L5,20 L5,34 L0,34 Z " fill="#342165" transform="translate(449,246)"/>
<path d="M0,0 L17,0 L17,1 L19,1 L19,2 L20,2 L20,3 L21,3 L21,4 L22,4 L22,6 L23,6 L23,13 L22,13 L22,15 L21,15 L21,16 L20,16 L20,17 L19,17 L19,18 L18,18 L18,19 L16,19 L16,21 L17,21 L17,22 L18,22 L18,24 L19,24 L19,26 L20,26 L20,28 L21,28 L21,30 L22,30 L22,32 L23,32 L23,34 L24,34 L24,35 L21,35 L21,34 L20,34 L20,33 L18,33 L18,31 L17,31 L17,30 L16,30 L16,29 L15,29 L15,27 L14,27 L14,25 L13,25 L13,23 L12,23 L12,21 L11,21 L11,20 L5,20 L5,34 L0,34 Z " fill="#2F1C62" transform="translate(576,246)"/>
<path d="M0,0 L3,0 L3,105 L2,105 L2,112 L1,112 L1,116 L0,116 L0,121 L-1,121 L-1,124 L-2,124 L-2,127 L-3,127 L-3,130 L-4,130 L-4,133 L-5,133 L-5,135 L-6,135 L-6,137 L-7,137 L-7,138 L-8,138 L-8,140 L-9,140 L-9,141 L-10,141 L-10,143 L-11,143 L-11,144 L-12,144 L-12,145 L-13,145 L-13,146 L-14,146 L-14,147 L-15,147 L-15,148 L-16,148 L-16,149 L-17,149 L-17,150 L-19,150 L-19,151 L-20,151 L-20,152 L-21,152 L-21,153 L-23,153 L-23,154 L-25,154 L-25,155 L-27,155 L-27,156 L-29,156 L-29,158 L-32,158 L-32,159 L-35,159 L-35,160 L-41,160 L-41,159 L-36,159 L-36,158 L-34,158 L-34,157 L-39,157 L-39,156 L-34,156 L-34,155 L-32,155 L-32,154 L-28,154 L-28,153 L-26,153 L-26,152 L-24,152 L-24,150 L-22,150 L-22,149 L-21,149 L-21,148 L-19,148 L-19,147 L-18,147 L-18,146 L-17,146 L-17,145 L-16,145 L-16,144 L-15,144 L-15,143 L-14,143 L-14,142 L-13,142 L-13,140 L-12,140 L-12,139 L-11,139 L-11,137 L-10,137 L-10,136 L-9,136 L-9,134 L-8,134 L-8,132 L-7,132 L-7,129 L-6,129 L-6,127 L-5,127 L-5,123 L-4,123 L-4,120 L-3,120 L-3,115 L-2,115 L-2,108 L-1,108 L-1,97 L0,97 Z " fill="#BC3434" transform="translate(960,3)"/>
<path d="M0,0 L4,0 L4,1 L5,1 L5,2 L6,2 L6,3 L7,3 L7,4 L8,4 L8,5 L9,5 L9,6 L10,6 L10,7 L11,7 L11,15 L10,15 L10,17 L9,17 L9,18 L8,18 L8,19 L7,19 L7,20 L6,20 L6,21 L4,21 L4,22 L-4,22 L-4,21 L-6,21 L-6,20 L-7,20 L-7,19 L-8,19 L-8,17 L-9,17 L-9,15 L-10,15 L-10,10 L-11,10 L-11,7 L-12,7 L-12,8 L-13,8 L-13,9 L-15,9 L-15,10 L-16,10 L-16,11 L-17,11 L-17,12 L-19,12 L-19,13 L-20,13 L-20,14 L-21,14 L-21,15 L-22,15 L-22,16 L-23,16 L-23,17 L-24,17 L-24,18 L-25,18 L-25,19 L-26,19 L-26,21 L-27,21 L-27,22 L-28,22 L-28,23 L-29,23 L-29,25 L-30,25 L-30,26 L-31,26 L-31,28 L-32,28 L-32,30 L-33,30 L-33,32 L-34,32 L-34,34 L-35,34 L-35,37 L-36,37 L-36,36 L-38,36 L-38,2 L-37,2 L-37,33 L-36,33 L-36,31 L-35,31 L-35,29 L-34,29 L-34,27 L-33,27 L-33,25 L-32,25 L-32,23 L-31,23 L-31,22 L-30,22 L-30,20 L-29,20 L-29,19 L-28,19 L-28,17 L-27,17 L-27,16 L-26,16 L-26,15 L-25,15 L-25,14 L-24,14 L-24,12 L-23,12 L-23,11 L-22,11 L-22,10 L-21,10 L-21,9 L-19,9 L-19,8 L-18,8 L-18,7 L-17,7 L-17,6 L-16,6 L-16,5 L-14,5 L-14,4 L-12,4 L-12,3 L-9,3 L-9,2 L-5,2 L-5,1 L0,1 Z " fill="#BD3434" transform="translate(739,47)"/>
<path d="M0,0 L2,0 L2,6 L3,6 L3,35 L-2,35 L-2,16 L-3,16 L-3,12 L-4,12 L-4,14 L-5,14 L-5,17 L-6,17 L-6,21 L-7,21 L-7,24 L-8,24 L-8,26 L-9,26 L-9,29 L-10,29 L-10,31 L-11,31 L-11,33 L-12,33 L-12,32 L-13,32 L-13,30 L-14,30 L-14,28 L-15,28 L-15,26 L-16,26 L-16,23 L-17,23 L-17,21 L-18,21 L-18,18 L-19,18 L-19,15 L-20,15 L-20,12 L-21,12 L-21,9 L-22,9 L-22,35 L-26,35 L-26,1 L-21,1 L-21,2 L-20,2 L-20,5 L-19,5 L-19,7 L-18,7 L-18,10 L-17,10 L-17,13 L-16,13 L-16,15 L-15,15 L-15,18 L-14,18 L-14,21 L-13,21 L-13,23 L-12,23 L-12,24 L-11,24 L-11,22 L-10,22 L-10,19 L-9,19 L-9,16 L-8,16 L-8,14 L-7,14 L-7,11 L-6,11 L-6,8 L-5,8 L-5,5 L-4,5 L-4,3 L-3,3 L-3,1 L0,1 Z " fill="#321F64" transform="translate(671,245)"/>
<path d="M0,0 L2,0 L2,1 L5,1 L5,2 L6,2 L6,4 L7,4 L7,6 L8,6 L8,7 L9,7 L9,9 L10,9 L10,10 L11,10 L11,12 L12,12 L12,14 L13,14 L13,16 L14,16 L14,18 L15,18 L15,19 L16,19 L16,21 L17,21 L17,23 L18,23 L18,25 L19,25 L19,26 L20,26 L20,1 L25,1 L25,36 L22,36 L22,35 L20,35 L20,34 L19,34 L19,32 L18,32 L18,31 L17,31 L17,29 L16,29 L16,27 L15,27 L15,26 L14,26 L14,24 L13,24 L13,22 L12,22 L12,20 L11,20 L11,19 L10,19 L10,17 L9,17 L9,15 L8,15 L8,13 L7,13 L7,11 L6,11 L6,10 L5,10 L5,8 L4,8 L4,35 L0,35 Z " fill="#352366" transform="translate(816,245)"/>
<path d="M0,0 L5,0 L5,1 L6,1 L6,3 L7,3 L7,5 L8,5 L8,7 L9,7 L9,8 L10,8 L10,10 L11,10 L11,12 L12,12 L12,13 L13,13 L13,15 L14,15 L14,17 L15,17 L15,19 L16,19 L16,20 L17,20 L17,22 L18,22 L18,24 L19,24 L19,25 L20,25 L20,0 L25,0 L25,35 L21,35 L21,34 L20,34 L20,33 L19,33 L19,31 L18,31 L18,30 L17,30 L17,28 L16,28 L16,27 L15,27 L15,25 L14,25 L14,23 L13,23 L13,21 L12,21 L12,20 L11,20 L11,18 L10,18 L10,16 L9,16 L9,14 L8,14 L8,13 L7,13 L7,11 L6,11 L6,9 L5,9 L5,7 L4,7 L4,34 L0,34 Z " fill="#352266" transform="translate(850,246)"/>
<path d="M0,0 L1,0 L1,3 L2,3 L2,36 L-3,36 L-3,35 L-4,35 L-4,34 L-5,34 L-5,32 L-6,32 L-6,30 L-7,30 L-7,28 L-8,28 L-8,27 L-9,27 L-9,25 L-10,25 L-10,23 L-11,23 L-11,21 L-12,21 L-12,19 L-13,19 L-13,18 L-14,18 L-14,16 L-15,16 L-15,14 L-16,14 L-16,12 L-17,12 L-17,11 L-18,11 L-18,9 L-19,9 L-19,36 L-23,36 L-23,2 L-18,2 L-18,3 L-17,3 L-17,5 L-16,5 L-16,6 L-15,6 L-15,8 L-14,8 L-14,10 L-13,10 L-13,11 L-12,11 L-12,13 L-11,13 L-11,15 L-10,15 L-10,17 L-9,17 L-9,18 L-8,18 L-8,20 L-7,20 L-7,22 L-6,22 L-6,24 L-5,24 L-5,26 L-4,26 L-4,27 L-3,27 L-3,4 L-2,4 L-2,2 L-1,2 L-1,1 L0,1 Z " fill="#352266" transform="translate(1070,244)"/>
<path d="M0,0 L5,0 L5,1 L6,1 L6,3 L7,3 L7,6 L8,6 L8,9 L9,9 L9,11 L10,11 L10,14 L11,14 L11,17 L12,17 L12,20 L13,20 L13,23 L14,23 L14,26 L15,26 L15,29 L16,29 L16,32 L17,32 L17,35 L14,35 L14,34 L13,34 L13,33 L12,33 L12,32 L11,32 L11,29 L10,29 L10,26 L9,26 L9,24 L-4,24 L-4,28 L-5,28 L-5,31 L-6,31 L-6,33 L-7,33 L-7,34 L-9,34 L-9,35 L-11,35 L-11,31 L-10,31 L-10,28 L-9,28 L-9,25 L-8,25 L-8,22 L-7,22 L-7,19 L-6,19 L-6,16 L-5,16 L-5,13 L-4,13 L-4,11 L-3,11 L-3,8 L-2,8 L-2,5 L-1,5 L-1,3 L0,3 Z " fill="#352366" transform="translate(951,246)"/>
<path d="M0,0 L5,0 L5,2 L6,2 L6,5 L7,5 L7,7 L8,7 L8,10 L9,10 L9,13 L10,13 L10,16 L11,16 L11,19 L12,19 L12,22 L13,22 L13,25 L14,25 L14,28 L15,28 L15,31 L16,31 L16,35 L14,35 L14,34 L12,34 L12,33 L11,33 L11,31 L10,31 L10,27 L9,27 L9,24 L-4,24 L-4,26 L-5,26 L-5,29 L-6,29 L-6,32 L-7,32 L-7,33 L-8,33 L-8,34 L-9,34 L-9,35 L-12,35 L-12,33 L-11,33 L-11,30 L-10,30 L-10,27 L-9,27 L-9,24 L-8,24 L-8,21 L-7,21 L-7,18 L-6,18 L-6,15 L-5,15 L-5,12 L-4,12 L-4,9 L-3,9 L-3,7 L-2,7 L-2,4 L-1,4 L-1,1 L0,1 Z " fill="#342165" transform="translate(555,246)"/>
<path d="M0,0 L8,0 L8,1 L10,1 L10,2 L12,2 L12,3 L13,3 L13,4 L15,4 L15,5 L16,5 L16,7 L17,7 L17,9 L18,9 L18,13 L19,13 L19,22 L18,22 L18,26 L17,26 L17,28 L16,28 L16,30 L15,30 L15,32 L13,32 L13,33 L12,33 L12,34 L10,34 L10,35 L8,35 L8,36 L0,36 L0,35 L-2,35 L-2,34 L-4,34 L-4,33 L-5,33 L-5,32 L-6,32 L-6,31 L-7,31 L-7,30 L-8,30 L-8,28 L-9,28 L-9,26 L-10,26 L-10,22 L-11,22 L-11,14 L-10,14 L-10,10 L-9,10 L-9,8 L-8,8 L-8,6 L-7,6 L-7,5 L-6,5 L-6,4 L-5,4 L-5,3 L-4,3 L-4,2 L-2,2 L-2,1 L0,1 Z M0,4 L0,5 L-2,5 L-2,7 L-3,7 L-3,8 L-4,8 L-4,10 L-5,10 L-5,12 L-6,12 L-6,22 L-5,22 L-5,26 L-4,26 L-4,28 L-3,28 L-3,29 L-2,29 L-2,30 L-1,30 L-1,31 L1,31 L1,32 L7,32 L7,31 L9,31 L9,30 L11,30 L11,29 L12,29 L12,27 L13,27 L13,24 L14,24 L14,11 L13,11 L13,9 L12,9 L12,8 L11,8 L11,6 L10,6 L10,5 L8,5 L8,4 Z " fill="#372568" transform="translate(1021,245)"/>
<path d="M0,0 L7,0 L7,1 L10,1 L10,2 L12,2 L12,3 L13,3 L13,4 L14,4 L14,5 L15,5 L15,6 L16,6 L16,8 L17,8 L17,11 L18,11 L18,24 L17,24 L17,27 L16,27 L16,29 L15,29 L15,31 L14,31 L14,32 L13,32 L13,33 L12,33 L12,34 L10,34 L10,35 L7,35 L7,36 L0,36 L0,35 L-3,35 L-3,34 L-5,34 L-5,33 L-6,33 L-6,32 L-7,32 L-7,31 L-8,31 L-8,29 L-9,29 L-9,27 L-10,27 L-10,23 L-11,23 L-11,11 L-10,11 L-10,9 L-9,9 L-9,7 L-8,7 L-8,5 L-7,5 L-7,4 L-6,4 L-6,3 L-5,3 L-5,2 L-3,2 L-3,1 L0,1 Z M-1,4 L-1,5 L-2,5 L-2,6 L-3,6 L-3,7 L-4,7 L-4,8 L-5,8 L-5,10 L-6,10 L-6,13 L-7,13 L-7,22 L-6,22 L-6,25 L-5,25 L-5,27 L-4,27 L-4,29 L-3,29 L-3,30 L-2,30 L-2,31 L1,31 L1,32 L7,32 L7,31 L9,31 L9,30 L10,30 L10,29 L11,29 L11,27 L12,27 L12,26 L13,26 L13,23 L14,23 L14,13 L13,13 L13,10 L12,10 L12,8 L11,8 L11,7 L10,7 L10,6 L9,6 L9,5 L7,5 L7,4 Z " fill="#332165" transform="translate(893,245)"/>
<path d="M0,0 L21,0 L21,5 L5,5 L5,15 L18,15 L18,19 L5,19 L5,31 L21,31 L21,35 L0,35 Z " fill="#3E2C6D" transform="translate(710,245)"/>
<path d="M0,0 L4,0 L4,14 L20,14 L20,0 L25,0 L25,34 L20,34 L20,18 L4,18 L4,34 L0,34 Z " fill="#2E1A61" transform="translate(388,246)"/>
<path d="M0,0 L5,0 L5,3 L6,3 L6,7 L7,7 L7,10 L8,10 L8,14 L9,14 L9,18 L10,18 L10,22 L11,22 L11,26 L12,26 L12,25 L13,25 L13,20 L14,20 L14,14 L15,14 L15,9 L16,9 L16,4 L17,4 L17,0 L22,0 L22,3 L21,3 L21,6 L20,6 L20,11 L19,11 L19,17 L18,17 L18,22 L17,22 L17,25 L16,25 L16,31 L15,31 L15,34 L9,34 L9,31 L8,31 L8,27 L7,27 L7,23 L6,23 L6,19 L5,19 L5,16 L4,16 L4,10 L3,10 L3,7 L2,7 L2,9 L1,9 L1,14 L0,14 L0,21 L-1,21 L-1,24 L-3,24 L-3,23 L-4,23 L-4,22 L-5,22 L-5,18 L-4,18 L-4,15 L-3,15 L-3,11 L-2,11 L-2,7 L-1,7 L-1,4 L0,4 Z " fill="#362467" transform="translate(360,246)"/>
<path d="M0,0 L9,0 L9,1 L11,1 L11,2 L13,2 L13,3 L14,3 L14,5 L15,5 L15,7 L13,7 L13,6 L11,6 L11,5 L8,5 L8,4 L2,4 L2,5 L1,5 L1,6 L0,6 L0,7 L-1,7 L-1,11 L0,11 L0,12 L1,12 L1,13 L3,13 L3,14 L5,14 L5,15 L7,15 L7,16 L9,16 L9,17 L11,17 L11,18 L13,18 L13,19 L14,19 L14,20 L15,20 L15,22 L16,22 L16,30 L15,30 L15,32 L14,32 L14,33 L12,33 L12,34 L11,34 L11,35 L8,35 L8,36 L0,36 L0,35 L-2,35 L-2,34 L-4,34 L-4,33 L-5,33 L-5,32 L-6,32 L-6,31 L-7,31 L-7,30 L-8,30 L-8,28 L-5,28 L-5,29 L-3,29 L-3,30 L0,30 L0,31 L10,31 L10,29 L11,29 L11,24 L10,24 L10,23 L9,23 L9,22 L8,22 L8,21 L6,21 L6,20 L4,20 L4,19 L2,19 L2,18 L0,18 L0,17 L-2,17 L-2,16 L-3,16 L-3,15 L-4,15 L-4,14 L-5,14 L-5,12 L-6,12 L-6,6 L-5,6 L-5,4 L-4,4 L-4,3 L-3,3 L-3,2 L-2,2 L-2,1 L0,1 Z " fill="#372568" transform="translate(769,245)"/>
<path d="M0,0 L19,0 L19,1 L20,1 L20,2 L21,2 L21,4 L5,4 L5,14 L18,14 L18,18 L4,18 L4,30 L20,30 L20,34 L0,34 Z " fill="#372568" transform="translate(683,246)"/>
<path d="M0,0 L19,0 L19,1 L20,1 L20,2 L21,2 L21,4 L5,4 L5,14 L18,14 L18,18 L4,18 L4,30 L20,30 L20,34 L0,34 Z " fill="#372568" transform="translate(480,246)"/>
<path d="M0,0 L20,0 L20,4 L5,4 L5,14 L16,14 L16,15 L17,15 L17,16 L18,16 L18,18 L4,18 L4,30 L20,30 L20,34 L0,34 Z " fill="#342165" transform="translate(422,246)"/>
<path d="M0,0 L3,0 L3,1 L5,1 L5,3 L6,3 L6,5 L7,5 L7,8 L8,8 L8,11 L9,11 L9,14 L10,14 L10,18 L11,18 L11,21 L12,21 L12,25 L13,25 L13,28 L15,28 L15,25 L16,25 L16,21 L17,21 L17,18 L18,18 L18,14 L19,14 L19,11 L20,11 L20,8 L21,8 L21,6 L22,6 L22,3 L23,3 L23,1 L27,1 L27,4 L26,4 L26,7 L25,7 L25,11 L24,11 L24,14 L23,14 L23,17 L22,17 L22,20 L21,20 L21,23 L20,23 L20,26 L19,26 L19,29 L18,29 L18,32 L17,32 L17,35 L11,35 L11,32 L10,32 L10,30 L9,30 L9,27 L8,27 L8,24 L7,24 L7,21 L6,21 L6,17 L5,17 L5,14 L4,14 L4,11 L3,11 L3,8 L2,8 L2,4 L1,4 L1,2 L0,2 Z " fill="#342266" transform="translate(913,245)"/>
<path d="M0,0 L6,0 L6,1 L9,1 L9,2 L11,2 L11,3 L13,3 L13,5 L12,5 L12,6 L11,6 L11,7 L9,7 L9,6 L7,6 L7,5 L6,5 L6,4 L0,4 L0,5 L-2,5 L-2,6 L-3,6 L-3,7 L-4,7 L-4,8 L-5,8 L-5,10 L-6,10 L-6,12 L-7,12 L-7,23 L-6,23 L-6,26 L-5,26 L-5,28 L-4,28 L-4,29 L-3,29 L-3,30 L-2,30 L-2,31 L6,31 L6,30 L9,30 L9,29 L12,29 L12,28 L14,28 L14,30 L13,30 L13,31 L12,31 L12,32 L11,32 L11,33 L10,33 L10,34 L9,34 L9,35 L6,35 L6,36 L-1,36 L-1,35 L-4,35 L-4,34 L-5,34 L-5,33 L-7,33 L-7,32 L-8,32 L-8,30 L-9,30 L-9,29 L-10,29 L-10,27 L-11,27 L-11,23 L-12,23 L-12,12 L-11,12 L-11,9 L-10,9 L-10,7 L-9,7 L-9,6 L-8,6 L-8,5 L-7,5 L-7,4 L-6,4 L-6,3 L-5,3 L-5,2 L-3,2 L-3,1 L0,1 Z " fill="#362367" transform="translate(528,245)"/>
<path d="M0,0 L19,0 L19,3 L4,3 L4,14 L16,14 L16,15 L17,15 L17,16 L18,16 L18,18 L4,18 L4,30 L20,30 L20,34 L0,34 Z " fill="#2C1960" transform="translate(607,246)"/>
<path d="M0,0 L25,0 L25,4 L15,4 L15,34 L10,34 L10,3 L0,3 Z " fill="#342165" transform="translate(735,246)"/>
<path d="M0,0 L1,0 L1,2 L66,2 L66,3 L81,3 L81,0 L82,0 L82,5 L0,5 L0,4 L13,4 L13,3 L0,3 Z " fill="#D88B8B" transform="translate(474,90)"/>
<path d="M0,0 L2,0 L2,6 L3,6 L3,35 L-2,35 L-2,16 L-3,16 L-3,12 L-4,12 L-4,14 L-5,14 L-5,16 L-7,16 L-7,17 L-8,17 L-8,14 L-7,14 L-7,11 L-6,11 L-6,8 L-5,8 L-5,5 L-4,5 L-4,3 L-3,3 L-3,1 L0,1 Z " fill="#392769" transform="translate(671,245)"/>
<path d="M0,0 L26,0 L26,3 L15,3 L15,34 L11,34 L11,3 L0,3 Z " fill="#2B185F" transform="translate(967,246)"/>
<path d="M0,0 L5,0 L5,3 L6,3 L6,8 L7,8 L7,13 L8,13 L8,19 L9,19 L9,28 L10,28 L10,26 L11,26 L11,24 L13,24 L13,26 L14,26 L14,32 L13,32 L13,34 L7,34 L7,32 L6,32 L6,27 L5,27 L5,21 L4,21 L4,16 L3,16 L3,11 L2,11 L2,6 L1,6 L1,2 L0,2 Z " fill="#342165" transform="translate(343,246)"/>
<path d="M0,0 L10,0 L10,1 L15,1 L15,9 L14,9 L14,10 L13,10 L13,11 L12,11 L12,12 L9,12 L9,13 L0,13 Z " fill="#E7E4EC" transform="translate(580,249)"/>
<path d="M0,0 L5,0 L5,34 L0,34 Z " fill="#332165" transform="translate(802,246)"/>
<path d="M0,0 L3,0 L3,2 L1,2 L1,3 L-2,3 L-2,5 L-10,5 L-10,6 L-14,6 L-14,8 L-19,8 L-19,9 L-52,9 L-52,8 L-56,8 L-56,7 L-49,7 L-49,6 L-50,6 L-50,5 L-47,5 L-47,6 L-23,6 L-23,5 L-17,5 L-17,4 L-12,4 L-12,3 L-7,3 L-7,2 L-3,2 L-3,1 L0,1 Z " fill="#D07171" transform="translate(548,154)"/>
<path d="M0,0 L9,0 L9,1 L12,1 L12,2 L13,2 L13,3 L14,3 L14,9 L13,9 L13,10 L12,10 L12,11 L11,11 L11,12 L9,12 L9,13 L0,13 Z " fill="#F4F3F7" transform="translate(454,249)"/>
<path d="M0,0 L2,0 L2,1 L5,1 L5,2 L7,2 L7,3 L11,3 L11,4 L17,4 L17,5 L33,5 L33,4 L38,4 L38,3 L41,3 L41,2 L44,2 L44,1 L46,1 L46,2 L45,2 L45,3 L44,3 L44,4 L49,4 L49,5 L45,5 L45,6 L42,6 L42,7 L35,7 L35,8 L18,8 L18,7 L10,7 L10,6 L6,6 L6,5 L3,5 L3,4 L0,4 L0,2 L1,2 L1,1 L0,1 Z " fill="#D47D7D" transform="translate(1005,156)"/>
<path d="M0,0 L1,0 L1,31 L2,31 L2,29 L3,29 L3,27 L4,27 L4,25 L5,25 L5,23 L6,23 L6,21 L7,21 L7,20 L8,20 L8,18 L9,18 L9,17 L10,17 L10,15 L11,15 L11,14 L12,14 L12,13 L13,13 L13,12 L14,12 L14,10 L15,10 L15,9 L16,9 L16,8 L17,8 L17,7 L19,7 L19,6 L20,6 L20,5 L21,5 L21,4 L22,4 L22,3 L24,3 L24,2 L26,2 L26,3 L25,3 L25,4 L24,4 L24,5 L26,5 L26,6 L25,6 L25,7 L23,7 L23,8 L22,8 L22,9 L21,9 L21,10 L19,10 L19,11 L18,11 L18,12 L17,12 L17,13 L16,13 L16,14 L15,14 L15,15 L14,15 L14,16 L13,16 L13,17 L12,17 L12,19 L11,19 L11,20 L10,20 L10,21 L9,21 L9,23 L8,23 L8,24 L7,24 L7,26 L6,26 L6,28 L5,28 L5,30 L4,30 L4,32 L3,32 L3,35 L2,35 L2,34 L0,34 Z " fill="#C65252" transform="translate(701,49)"/>
<path d="M0,0 L1,0 L1,133 L0,133 L0,4 L-1,4 L-1,5 L-2,5 L-2,6 L-4,6 L-4,5 L-3,5 L-3,4 L-2,4 L-2,2 L-1,2 L-1,1 L0,1 Z " fill="#BE3636" transform="translate(294,146)"/>
<path d="M0,0 L4,0 L4,34 L0,34 Z " fill="#27135B" transform="translate(999,246)"/>
<path d="M0,0 L12,0 L12,1 L14,1 L14,2 L11,2 L11,3 L13,3 L13,4 L9,4 L9,3 L6,3 L6,2 L-3,2 L-3,3 L-7,3 L-7,4 L-10,4 L-10,5 L-12,5 L-12,6 L-14,6 L-14,7 L-15,7 L-15,8 L-17,8 L-17,9 L-18,9 L-18,10 L-19,10 L-19,11 L-20,11 L-20,12 L-21,12 L-21,13 L-22,13 L-22,14 L-23,14 L-23,15 L-24,15 L-24,16 L-25,16 L-25,17 L-26,17 L-26,18 L-27,18 L-27,19 L-28,19 L-28,20 L-29,20 L-29,21 L-30,21 L-30,23 L-31,23 L-31,24 L-32,24 L-32,26 L-33,26 L-33,28 L-35,28 L-35,26 L-34,26 L-34,25 L-33,25 L-33,23 L-32,23 L-32,21 L-31,21 L-31,20 L-30,20 L-30,19 L-29,19 L-29,17 L-28,17 L-28,16 L-27,16 L-27,15 L-26,15 L-26,14 L-25,14 L-25,13 L-24,13 L-24,12 L-23,12 L-23,11 L-22,11 L-22,10 L-21,10 L-21,9 L-20,9 L-20,8 L-18,8 L-18,7 L-17,7 L-17,6 L-15,6 L-15,5 L-14,5 L-14,4 L-12,4 L-12,3 L-10,3 L-10,2 L-6,2 L-6,1 L0,1 Z " fill="#CE6B6B" transform="translate(1041,47)"/>
<path d="M0,0 L2,0 L2,2 L1,2 L1,3 L0,3 L0,4 L-1,4 L-1,6 L-2,6 L-2,7 L-3,7 L-3,8 L-4,8 L-4,9 L-5,9 L-5,10 L-6,10 L-6,11 L-7,11 L-7,12 L-8,12 L-8,13 L-10,13 L-10,15 L-12,15 L-12,16 L-14,16 L-14,17 L-16,17 L-16,18 L-20,18 L-20,19 L-24,19 L-24,20 L-46,20 L-46,19 L-49,19 L-49,18 L-51,18 L-51,17 L-47,17 L-47,18 L-45,18 L-45,19 L-36,19 L-36,18 L-38,18 L-38,17 L-35,17 L-35,18 L-23,18 L-23,17 L-19,17 L-19,16 L-17,16 L-17,15 L-15,15 L-15,14 L-13,14 L-13,13 L-11,13 L-11,12 L-10,12 L-10,11 L-9,11 L-9,10 L-8,10 L-8,9 L-7,9 L-7,8 L-5,8 L-5,6 L-4,6 L-4,5 L-3,5 L-3,4 L-2,4 L-2,3 L-1,3 L-1,2 L0,2 Z " fill="#D68484" transform="translate(637,143)"/>
<path d="M0,0 L1,0 L1,3 L2,3 L2,7 L3,7 L3,10 L4,10 L4,13 L5,13 L5,16 L6,16 L6,17 L-5,17 L-5,14 L-4,14 L-4,11 L-3,11 L-3,8 L-2,8 L-2,5 L-1,5 L-1,2 L0,2 Z " fill="#EEEDF2" transform="translate(557,249)"/>
<path d="M0,0 L1,0 L1,2 L2,2 L2,5 L3,5 L3,8 L4,8 L4,11 L5,11 L5,14 L6,14 L6,17 L-4,17 L-4,13 L-3,13 L-3,10 L-2,10 L-2,7 L-1,7 L-1,3 L0,3 Z " fill="#EFEEF3" transform="translate(953,249)"/>
<path d="M0,0 L2,0 L2,3 L1,3 L1,4 L0,4 L0,5 L-1,5 L-1,6 L-2,6 L-2,7 L-3,7 L-3,8 L-4,8 L-4,9 L-6,9 L-6,10 L-7,10 L-7,11 L-8,11 L-8,12 L-10,12 L-10,13 L-12,13 L-12,14 L-14,14 L-14,15 L-16,15 L-16,17 L-19,17 L-19,18 L-22,18 L-22,19 L-28,19 L-28,18 L-23,18 L-23,17 L-21,17 L-21,16 L-26,16 L-26,15 L-21,15 L-21,14 L-19,14 L-19,13 L-15,13 L-15,12 L-13,12 L-13,11 L-11,11 L-11,9 L-9,9 L-9,8 L-8,8 L-8,7 L-6,7 L-6,6 L-5,6 L-5,5 L-4,5 L-4,4 L-3,4 L-3,3 L-2,3 L-2,2 L-1,2 L-1,1 L0,1 Z " fill="#C04040" transform="translate(947,144)"/>
<path d="M0,0 L2,0 L2,1 L16,1 L16,2 L1,2 L1,3 L-5,3 L-5,4 L-8,4 L-8,5 L-11,5 L-11,6 L-14,6 L-14,7 L-17,7 L-17,8 L-21,8 L-21,9 L-24,9 L-24,10 L-27,10 L-27,11 L-28,11 L-28,9 L-26,9 L-26,8 L-24,8 L-24,7 L-22,7 L-22,6 L-20,6 L-20,5 L-17,5 L-17,4 L-14,4 L-14,3 L-10,3 L-10,2 L-6,2 L-6,1 L0,1 Z " fill="#CC6464" transform="translate(605,48)"/>
<path d="M0,0 L21,0 L21,2 L25,2 L25,3 L24,3 L24,5 L25,5 L25,6 L23,6 L23,5 L21,5 L21,4 L19,4 L19,3 L2,3 L2,2 L0,2 Z " fill="#D07272" transform="translate(500,47)"/>
<path d="M0,0 L3,0 L3,2 L1,2 L1,3 L-2,3 L-2,5 L-10,5 L-10,6 L-14,6 L-14,8 L-19,8 L-19,9 L-26,9 L-26,8 L-21,8 L-21,7 L-16,7 L-16,6 L-23,6 L-23,5 L-17,5 L-17,4 L-12,4 L-12,3 L-7,3 L-7,2 L-3,2 L-3,1 L0,1 Z " fill="#D57F7F" transform="translate(548,154)"/>
<path d="M0,0 L2,0 L2,2 L0,2 L0,3 L-2,3 L-2,4 L-4,4 L-4,5 L-7,5 L-7,6 L-11,6 L-11,7 L-20,7 L-20,6 L-14,6 L-14,5 L-29,5 L-29,4 L-14,4 L-14,3 L-9,3 L-9,2 L-4,2 L-4,1 L0,1 Z " fill="#D98B8B" transform="translate(826,156)"/>
<path d="M0,0 L17,0 L17,1 L16,1 L16,3 L-3,3 L-3,1 L0,1 Z " fill="#F7EFEF" transform="translate(328,0)"/>
<path d="M0,0 L6,0 L6,1 L9,1 L9,2 L11,2 L11,3 L13,3 L13,5 L12,5 L12,6 L11,6 L11,7 L9,7 L9,6 L7,6 L7,5 L6,5 L6,4 L1,4 L1,3 L4,3 L4,2 L-3,2 L-3,1 L0,1 Z " fill="#4C3B77" transform="translate(528,245)"/>
<path d="M0,0 L2,0 L2,2 L1,2 L1,3 L0,3 L0,4 L-1,4 L-1,5 L-2,5 L-2,6 L-3,6 L-3,7 L-4,7 L-4,8 L-5,8 L-5,9 L-6,9 L-6,10 L-7,10 L-7,11 L-8,11 L-8,12 L-9,12 L-9,14 L-10,14 L-10,15 L-11,15 L-11,17 L-12,17 L-12,19 L-14,19 L-14,17 L-13,17 L-13,16 L-12,16 L-12,14 L-11,14 L-11,12 L-10,12 L-10,11 L-9,11 L-9,10 L-8,10 L-8,8 L-7,8 L-7,7 L-6,7 L-6,6 L-5,6 L-5,5 L-4,5 L-4,4 L-3,4 L-3,3 L-2,3 L-2,2 L-1,2 L-1,1 L0,1 Z " fill="#C54F4F" transform="translate(1020,56)"/>
<path d="M0,0 L9,0 L9,1 L11,1 L11,2 L13,2 L13,3 L14,3 L14,5 L15,5 L15,7 L13,7 L13,6 L11,6 L11,5 L8,5 L8,4 L5,4 L5,3 L6,3 L6,2 L5,2 L5,1 L0,1 Z " fill="#4C3C78" transform="translate(769,245)"/>
<path d="M0,0 L1,0 L1,28 L0,28 L0,4 L-1,4 L-1,5 L-2,5 L-2,6 L-4,6 L-4,5 L-3,5 L-3,4 L-2,4 L-2,2 L-1,2 L-1,1 L0,1 Z " fill="#BF3E3E" transform="translate(294,146)"/>
<path d="M0,0 L1,0 L1,26 L-2,26 L-2,25 L-5,25 L-5,24 L-4,24 L-4,23 L0,23 Z " fill="#DB9292" transform="translate(770,26)"/>
<path d="M0,0 L1,0 L1,1 L2,1 L2,2 L1,2 L1,4 L0,4 L0,6 L-1,6 L-1,7 L-2,7 L-2,9 L-3,9 L-3,10 L-4,10 L-4,12 L-5,12 L-5,10 L-7,10 L-7,9 L-6,9 L-6,8 L-5,8 L-5,6 L-4,6 L-4,5 L-3,5 L-3,3 L-2,3 L-2,1 L0,1 Z " fill="#C24545" transform="translate(954,134)"/>
<path d="M0,0 L2,0 L2,1 L1,1 L1,2 L0,2 L0,3 L-1,3 L-1,4 L-2,4 L-2,5 L-3,5 L-3,6 L-4,6 L-4,7 L-5,7 L-5,8 L-6,8 L-6,9 L-7,9 L-7,10 L-8,10 L-8,11 L-9,11 L-9,12 L-10,12 L-10,13 L-11,13 L-11,14 L-12,14 L-12,15 L-13,15 L-13,16 L-14,16 L-14,17 L-16,17 L-16,16 L-15,16 L-15,15 L-14,15 L-14,14 L-13,14 L-13,13 L-12,13 L-12,11 L-11,11 L-11,10 L-9,10 L-9,9 L-8,9 L-8,8 L-7,8 L-7,7 L-6,7 L-6,6 L-5,6 L-5,5 L-4,5 L-4,4 L-3,4 L-3,3 L-2,3 L-2,2 L-1,2 L-1,1 L0,1 Z " fill="#402E6E" transform="translate(35,134)"/>
<path d="M0,0 L2,0 L2,1 L1,1 L1,2 L0,2 L0,3 L5,3 L5,4 L1,4 L1,5 L-10,5 L-10,4 L-6,4 L-6,2 L-3,2 L-3,1 L0,1 Z " fill="#CA5F5F" transform="translate(1049,157)"/>
<path d="M0,0 L2,0 L2,2 L1,2 L1,3 L0,3 L0,4 L-1,4 L-1,6 L-2,6 L-2,7 L-3,7 L-3,8 L-4,8 L-4,9 L-5,9 L-5,10 L-6,10 L-6,11 L-7,11 L-7,12 L-8,12 L-8,13 L-10,13 L-10,14 L-11,14 L-11,12 L-10,12 L-10,11 L-9,11 L-9,10 L-8,10 L-8,9 L-7,9 L-7,8 L-5,8 L-5,6 L-4,6 L-4,5 L-3,5 L-3,4 L-2,4 L-2,3 L-1,3 L-1,2 L0,2 Z " fill="#CB6060" transform="translate(637,143)"/>
<path d="M0,0 L12,0 L12,1 L10,1 L10,2 L5,2 L5,3 L2,3 L2,4 L-2,4 L-2,2 L-1,2 L-1,1 L0,1 Z " fill="#C44C4C" transform="translate(599,109)"/>
<path d="M0,0 L4,0 L4,1 L2,1 L2,2 L3,2 L3,4 L0,4 L0,5 L-3,5 L-3,6 L-9,6 L-9,5 L-4,5 L-4,4 L-2,4 L-2,3 L-7,3 L-7,2 L-2,2 L-2,1 L0,1 Z " fill="#D27878" transform="translate(928,157)"/>
<path d="M0,0 L2,0 L2,1 L1,1 L1,4 L0,4 L0,5 L-2,5 L-2,6 L-4,6 L-4,7 L-6,7 L-6,8 L-9,8 L-9,7 L-7,7 L-7,5 L-5,5 L-5,4 L-3,4 L-3,2 L-1,2 L-1,1 L0,1 Z " fill="#C34949" transform="translate(939,151)"/>
<path d="M0,0 L17,0 L17,2 L19,2 L19,3 L14,3 L14,1 L0,1 Z " fill="#C44B4B" transform="translate(607,48)"/>
<path d="M0,0 L2,0 L2,2 L0,2 L0,3 L-2,3 L-2,4 L-4,4 L-4,5 L-7,5 L-7,4 L-5,4 L-5,3 L-9,3 L-9,2 L-4,2 L-4,1 L0,1 Z " fill="#DD9A9A" transform="translate(826,156)"/>
<path d="M0,0 L3,0 L3,2 L1,2 L1,3 L-2,3 L-2,5 L-6,5 L-6,4 L-3,4 L-3,3 L-7,3 L-7,2 L-3,2 L-3,1 L0,1 Z " fill="#DB9191" transform="translate(548,154)"/>
<path d="M0,0 L6,0 L6,2 L3,2 L3,3 L1,3 L1,4 L-1,4 L-1,2 L0,2 Z " fill="#C24444" transform="translate(496,49)"/>
<path d="M0,0 L2,0 L2,1 L1,1 L1,4 L0,4 L0,6 L-1,6 L-1,5 L-2,5 L-2,6 L-3,6 L-3,3 L-2,3 L-2,1 L0,1 Z " fill="#BF3C3C" transform="translate(956,129)"/>
</svg>
